<?xml version="1.0" encoding="utf-8"?>
<!-- Generator: Adobe Illustrator 19.1.0, SVG Export Plug-In . SVG Version: 6.00 Build 0)  -->
<svg version="1.1" id="Layer_1" xmlns="http://www.w3.org/2000/svg" xmlns:xlink="http://www.w3.org/1999/xlink" x="0px" y="0px"
	 viewBox="0 0 513.2 140.5" enable-background="new 0 0 513.2 140.5" xml:space="preserve">
<g>
	<circle fill="#FFFFFF" cx="71.2" cy="74.8" r="64.5"/>
	<g>
		<g>
			<path d="M180,35.6c0-6.3-3.3-5.9-6.5-6v-1.8c2.7,0.1,5.6,0.1,8.3,0.1c3,0,7-0.1,12.2-0.1c18.2,0,28.1,12.2,28.1,24.6
				c0,7-4.1,24.5-29,24.5c-3.6,0-6.9-0.1-10.2-0.1c-3.2,0-6.3,0.1-9.4,0.1V75c4.2-0.4,6.3-0.6,6.5-5.3V35.6z M186.9,68.6
				c0,5.4,3.9,6,7.3,6c15.2,0,20.2-11.5,20.2-21.9c0-13.1-8.4-22.6-22-22.6c-2.9,0-4.2,0.2-5.5,0.3V68.6z"/>
			<path d="M224.6,75h1.3c2,0,3.4,0,3.4-2.3v-19c0-3.1-1-3.5-3.7-4.9v-1.1c3.3-1,7.2-2.3,7.5-2.5c0.5-0.3,0.9-0.3,1.3-0.3
				c0.3,0,0.5,0.4,0.5,1v27c0,2.3,1.6,2.3,3.5,2.3h1.2v1.8c-2.4,0-4.9-0.1-7.4-0.1c-2.5,0-5.1,0.1-7.7,0.1V75z M232.1,33.9
				c-1.8,0-3.5-1.7-3.5-3.5c0-1.8,1.7-3.4,3.5-3.4c1.8,0,3.4,1.5,3.4,3.4C235.5,32.3,234,33.9,232.1,33.9z"/>
			<path d="M246.3,54.1c0-2.6-0.8-3.3-4.1-4.6v-1.3c3-1,5.9-1.9,9.3-3.4c0.2,0,0.4,0.1,0.4,0.7V50c4-2.9,7.5-5.3,12.2-5.3
				c6,0,8.1,4.4,8.1,9.8v18.1c0,2.3,1.6,2.3,3.5,2.3h1.3v1.8c-2.5,0-4.9-0.1-7.4-0.1c-2.5,0-5.1,0.1-7.6,0.1V75h1.3
				c2,0,3.4,0,3.4-2.3V54.5c0-4-2.5-6-6.5-6c-2.3,0-5.8,1.8-8.2,3.4v20.8c0,2.3,1.6,2.3,3.5,2.3h1.3v1.8c-2.5,0-4.9-0.1-7.5-0.1
				c-2.5,0-5.1,0.1-7.6,0.1V75h1.3c2,0,3.4,0,3.4-2.3V54.1z"/>
			<path d="M282.3,57.5c-0.1,0.6-0.1,1.7,0,4.1c0.4,6.7,4.7,12.2,10.3,12.2c3.9,0,6.9-2.1,9.5-4.7l1,1c-3.2,4.3-7.2,7.9-13,7.9
				c-11.2,0-13.4-10.8-13.4-15.3c0-13.8,9.3-17.9,14.2-17.9c5.7,0,11.8,3.6,11.9,11c0,0.4,0,0.8-0.1,1.3l-0.6,0.4H282.3z
				 M294.7,55.2c1.8,0,2-0.9,2-1.8c0-3.6-2.2-6.5-6.1-6.5c-4.3,0-7.2,3.2-8.1,8.2H294.7z"/>
			<path d="M304.4,75h1.9c2,0,3.4,0,3.4-2.3V53c0-2.2-2.6-2.6-3.7-3.2v-1c5.1-2.2,8-4,8.6-4c0.4,0,0.6,0.2,0.6,0.9V52h0.1
				c1.8-2.7,4.7-7.2,9-7.2c1.8,0,4,1.2,4,3.7c0,1.9-1.3,3.6-3.3,3.6c-2.2,0-2.2-1.7-4.6-1.7c-1.2,0-5.1,1.6-5.1,5.8v16.5
				c0,2.3,1.4,2.3,3.4,2.3h3.9v1.8c-3.9-0.1-6.8-0.1-9.8-0.1c-2.9,0-5.8,0.1-8.4,0.1V75z"/>
			<path d="M331.4,67.1c0.9,4.6,3.7,8.6,8.9,8.6c4.1,0,5.7-2.5,5.7-5c0-8.3-15.3-5.6-15.3-16.9c0-3.9,3.2-9,10.9-9
				c2.2,0,5.3,0.6,8,2l0.5,7.2h-1.6c-0.7-4.4-3.2-7-7.7-7c-2.8,0-5.5,1.6-5.5,4.6c0,8.2,16.3,5.7,16.3,16.7c0,4.6-3.7,9.6-12.1,9.6
				c-2.8,0-6.1-1-8.6-2.4l-0.8-8.1L331.4,67.1z"/>
			<path d="M415.1,40.5h-1.8c-1.3-8.2-7.2-11.5-15-11.5c-8.1,0-19.8,5.4-19.8,22.3c0,14.2,10.1,24.4,21,24.4c7,0,12.7-4.8,14.1-12.2
				l1.6,0.4l-1.6,10.3c-3,1.8-10.9,3.7-15.6,3.7c-16.5,0-26.8-10.6-26.8-26.4c0-14.4,12.9-24.8,26.6-24.8c5.7,0,11.2,1.8,16.6,3.7
				L415.1,40.5z"/>
			<path d="M417.6,75h1.3c2,0,3.4,0,3.4-2.3V33.6c0-4.6-1.1-4.7-3.7-5.5V27c2.8-0.9,5.8-2.2,7.2-3c0.8-0.4,1.3-0.8,1.5-0.8
				c0.4,0,0.6,0.4,0.6,1v48.6c0,2.3,1.6,2.3,3.5,2.3h1.2v1.8c-2.4,0-4.8-0.1-7.4-0.1c-2.5,0-5.1,0.1-7.7,0.1V75z"/>
			<path d="M462.8,73c0,1.3,0.8,1.3,2,1.3c0.8,0,1.9-0.1,2.8-0.1v1.5c-3,0.3-8.8,1.8-10.1,2.2l-0.3-0.2V72
				c-4.2,3.4-7.5,5.9-12.5,5.9c-3.8,0-7.7-2.5-7.7-8.4v-18c0-1.8-0.3-3.6-4.2-3.9v-1.3c2.5-0.1,8.1-0.5,9.1-0.5c0.8,0,0.8,0.5,0.8,2
				V66c0,2.1,0,8.2,6.1,8.2c2.4,0,5.5-1.8,8.5-4.3V50.9c0-1.4-3.4-2.2-5.9-2.9v-1.3c6.3-0.4,10.3-1,11-1c0.6,0,0.6,0.5,0.6,1.3V73z"
				/>
			<path d="M476.8,49.8c2.8-2.4,6.6-5.1,10.5-5.1c8.2,0,13.1,7.1,13.1,14.8c0,9.2-6.7,18.4-16.8,18.4c-5.2,0-7.9-1.7-9.8-2.5
				l-2.1,1.6l-1.5-0.8c0.6-4.1,1-8.2,1-12.5V33.6c0-4.6-1-4.7-3.7-5.5V27c2.8-0.9,5.8-2.2,7.2-3c0.8-0.4,1.3-0.8,1.6-0.8
				c0.4,0,0.6,0.4,0.6,1V49.8z M476.8,68.9c0,2.7,2.5,7.2,7.3,7.2c7.5,0,10.7-7.4,10.7-13.6c0-7.6-5.8-13.9-11.3-13.9
				c-2.6,0-4.8,1.7-6.7,3.3V68.9z"/>
		</g>
		<g>
			<path d="M173.4,117.8h0.5c1.4,0,2.8-0.2,2.8-2.2v-20c0-2-1.5-2.2-2.8-2.2h-0.5v-1.2c1.5,0,3.8,0.2,5.7,0.2c1.9,0,4.2-0.2,6-0.2
				v1.2h-0.5c-1.4,0-2.8,0.2-2.8,2.2v20c0,2,1.5,2.2,2.8,2.2h0.5v1.2c-1.8,0-4.1-0.1-6-0.1c-1.9,0-4.1,0.1-5.6,0.1V117.8z"/>
			<path d="M185.1,119.1c-1.8,0-4.1-0.1-6-0.1l0,0c-1.9,0-4.1,0.1-5.6,0.1l0,0h-0.2v-0.2v-1.1v-0.2h0.2h0.5c1.4,0,2.7-0.2,2.7-2l0,0
				v-20c0-1.9-1.3-2-2.7-2l0,0h-0.7v-0.2V92h0.2c1.5,0,3.8,0.1,5.7,0.1l0,0c1.9,0,4.2-0.1,6-0.1l0,0h0.2v0.2v1.3h-0.2h-0.5
				c-1.4,0-2.7,0.1-2.7,2l0,0v20c0,1.9,1.3,2,2.7,2l0,0h0.7v0.2v1.3H185.1L185.1,119.1z M184.9,118.8l0-0.8h-0.4c-1.4,0-3-0.2-3-2.4
				l0,0v-20c0-2.1,1.6-2.3,3-2.3l0,0h0.4v-0.8c-1.8,0-4,0.2-5.8,0.2l0,0c-1.8,0-4-0.1-5.5-0.2l0,0v0.8h0.4c1.4,0,3,0.2,3,2.3l0,0v20
				c0,2.1-1.6,2.4-3,2.4l0,0h-0.4v0.8c1.5,0,3.6-0.2,5.5-0.2l0,0C180.9,118.6,183.1,118.7,184.9,118.8L184.9,118.8z"/>
		</g>
		<g>
			<path d="M211.4,111.4L211.4,111.4l0.1-14.4c0-3.1-2.2-3.6-3.3-3.6h-0.8v-1.2c1.8,0,3.6,0.2,5.4,0.2c1.6,0,3.1-0.2,4.7-0.2v1.2
				h-0.6c-1.6,0-3.4,0.3-3.4,4.9v17.4c0,1.3,0,2.7,0.2,3.9h-1.5l-19.7-22v15.8c0,3.3,0.6,4.5,3.6,4.5h0.7v1.2
				c-1.6,0-3.3-0.1-4.9-0.1c-1.7,0-3.5,0.1-5.2,0.1v-1.2h0.5c2.6,0,3.4-1.8,3.4-4.9V96.8c0-2.1-1.8-3.4-3.5-3.4h-0.5v-1.2
				c1.4,0,2.9,0.2,4.4,0.2c1.1,0,2.3-0.2,3.4-0.2L211.4,111.4z"/>
			<path d="M213.6,119.7l-1.6-0.1L192.6,98v15.3c0,3.3,0.6,4.3,3.4,4.3l0,0h0.8v0.2v1.3h-0.2c-1.7,0-3.3-0.1-4.9-0.1l0,0
				c-1.7,0-3.5,0.1-5.2,0.1l0,0h-0.2v-0.2v-1.3h0.2h0.5c2.5,0,3.3-1.6,3.3-4.7l0,0V96.8c0-2-1.7-3.3-3.3-3.3l0,0h-0.7v-0.2V92h0.2
				c1.5,0,3,0.1,4.4,0.1l0,0c1.1,0,2.2-0.1,3.5-0.1l0,0l16.8,18.9V97c0-3-2-3.4-3.2-3.4l0,0h-1v-0.2V92h0.2c1.8,0,3.6,0.1,5.4,0.1
				l0,0c1.6,0,3.1-0.1,4.7-0.1l0,0h0.2v0.2v1.3h-0.2h-0.6c-1.6,0-3.2,0.2-3.2,4.7l0,0v17.4c0,1.3,0,2.7,0.2,3.8l0,0l0,0.2H213.6
				L213.6,119.7z M212.1,119.3h1.3c-0.2-1.1-0.2-2.4-0.2-3.7l0,0V98.2c0-4.6,1.9-5,3.6-5l0,0h0.4v-0.8c-1.5,0-3,0.2-4.5,0.2l0,0
				c-1.8,0-3.5-0.1-5.2-0.2l0,0v0.8h0.7c1.2,0,3.5,0.5,3.5,3.8l0,0l0,14.5l-0.1,0.1l-0.1,0.1l-17-19.2c-1.1,0-2.2,0.2-3.4,0.2l0,0
				c-1.4,0-2.8-0.1-4.2-0.2l0,0l0,0.8h0.3c1.8,0,3.6,1.4,3.6,3.6l0,0v16.1c0,3.1-0.9,5-3.6,5l0,0l-0.4,0v0.8c1.7,0,3.4-0.2,5-0.2
				l0,0c1.6,0,3.2,0.1,4.8,0.2l0,0v-0.8H196c-3,0-3.8-1.3-3.8-4.6l0,0V97.1L212.1,119.3L212.1,119.3z M211.4,111.4l0.1-0.1
				L211.4,111.4L211.4,111.4z M211.3,111.3L211.3,111.3L211.3,111.3L211.3,111.3L211.3,111.3z"/>
		</g>
		<g>
			<path d="M223.1,94.1c-2.9,0-3,0.7-3.6,3.5h-1.1c0.2-1.1,0.3-2.1,0.5-3.3c0.1-1.1,0.2-2.1,0.2-3.2h0.9c0.3,1.1,1.3,1.1,2.3,1.1
				H242c1,0,2,0,2.1-1.2l0.9,0.2c-0.1,1-0.3,2.1-0.4,3.1c-0.1,1-0.1,2.1-0.1,3.1l-1.1,0.4c-0.1-1.4-0.3-3.7-2.8-3.7h-6.3v20.4
				c0,3,1.3,3.3,3.2,3.3h0.7v1.2c-1.5,0-4.2-0.1-6.2-0.1c-2.3,0-5,0.1-6.5,0.1v-1.2h0.7c2.1,0,3.2-0.2,3.2-3.2V94.1H223.1z"/>
			<path d="M238.2,119.1c-1.5,0-4.2-0.1-6.2-0.1l0,0c-2.3,0-5,0.1-6.5,0.1l0,0h-0.2v-0.2v-1.3h0.2h0.7c2.1-0.1,3-0.1,3-3l0,0V94.3
				h-6.1v-0.2V94h6.4v20.6c0,3.1-1.2,3.4-3.3,3.4l0,0h-0.6v0.8c1.5,0,4.1-0.2,6.3-0.2l0,0c2,0,4.6,0.1,6.1,0.2l0,0v-0.8h-0.6
				c-1.9,0-3.3-0.5-3.3-3.5l0,0V94h6.4c2.6,0,2.9,2.2,3,3.6l0,0l0.8-0.3c0-1,0-2,0.1-3l0,0c0.1-1,0.3-2,0.4-2.9l0,0l-0.6-0.1
				c-0.2,1.1-1.3,1.2-2.2,1.2l0,0h-19.7c-0.1,0-0.1,0-0.2,0l0,0c-0.9,0-1.9,0-2.2-1.1l0,0h-0.6c0,1.1-0.1,2.1-0.2,3.1l0,0
				c-0.1,1-0.3,2.1-0.4,3.1l0,0h0.8c0.5-2.7,0.8-3.5,3.7-3.5l0,0v0.2v0.2c-2.8,0.1-2.8,0.5-3.4,3.4l0,0l0,0.1h-0.1h-1.3l0-0.2
				c0.1-1.1,0.3-2.1,0.5-3.3l0,0c0.2-1.1,0.2-2.1,0.2-3.2l0,0v-0.2h0.2h1l0,0.1c0.3,1,1,1,1.9,1l0,0c0.1,0,0.1,0,0.2,0l0,0H242
				c1.1,0,1.8,0,1.9-1l0,0l0-0.2l0.2,0l1.1,0.2l0,0.2c-0.1,1-0.3,2.1-0.4,3.1l0,0c-0.1,1-0.1,2.1-0.1,3.1l0,0v0.1l-0.1,0l-1.4,0.5
				l0-0.2c-0.1-1.4-0.3-3.5-2.7-3.5l0,0h-6.1v20.2c0,2.9,1.2,3.1,3,3.1l0,0h0.9v0.2v1.3H238.2L238.2,119.1z"/>
		</g>
		<g>
			<path d="M246.2,117.8h0.5c1.4,0,2.8-0.2,2.8-2.2v-20c0-2-1.5-2.2-2.8-2.2h-0.5v-1.2c2.3,0,6.3,0.2,9.5,0.2c3.2,0,7.2-0.2,9.8-0.2
				c-0.1,1.6,0,4.2,0.1,5.9l-1.2,0.3c-0.2-2.5-0.6-4.5-4.7-4.5h-5.3v10h4.5c2.3,0,2.8-1.3,3-3.4h1.1c-0.1,1.5-0.1,3-0.1,4.5
				c0,1.5,0,2.9,0.1,4.4l-1.1,0.2c-0.2-2.3-0.3-3.8-3-3.8h-4.6v8.9c0,2.5,2.2,2.5,4.7,2.5c4.6,0,6.6-0.3,7.8-4.7l1.1,0.3
				c-0.5,2-1,4-1.3,6.1c-2.4,0-6.8-0.1-10.3-0.1c-3.4,0-8,0.1-10.2,0.1V117.8z"/>
			<path d="M266.7,119.1c-2.5,0-6.9-0.2-10.3-0.2l0,0c-3.4,0-8,0.2-10.2,0.2l0,0h-0.2v-0.2v-1.2v-0.2h0.2h0.5c1.4,0,2.6-0.2,2.7-2
				l0,0v-20c0-1.9-1.3-2-2.7-2l0,0h-0.7v-0.2V92h0.2c2.3,0,6.3,0.1,9.5,0.1l0,0c3.2,0,7.2-0.1,9.8-0.1l0,0h0.2v0.2c0,0.6,0,1.3,0,2
				l0,0c0,1.3,0,2.8,0.1,3.9l0,0v0.1l-0.1,0l-1.3,0.4l0-0.2c-0.2-2.5-0.6-4.3-4.5-4.3l0,0h-5.2v9.7h4.4c2.2,0,2.6-1.1,2.9-3.2l0,0
				l0-0.1h0.1h1.3v0.2c-0.1,1.5-0.1,3-0.1,4.5l0,0c0,1.4,0,2.9,0.1,4.4l0,0v0.1l-0.1,0l-1.3,0.3l0-0.2c-0.3-2.3-0.3-3.6-2.8-3.6l0,0
				l-4.4,0v8.8c0,2.3,2,2.3,4.5,2.3l0,0c4.6,0,6.5-0.3,7.6-4.6l0,0l0-0.2l0.2,0l1.2,0.3l0,0.2c-0.5,2-0.9,4-1.3,6.1l0,0l0,0.1H266.7
				L266.7,119.1z M266.6,118.7c0.3-1.9,0.8-3.9,1.2-5.8l0,0l-0.8-0.2c-1.1,4.3-3.4,4.7-7.9,4.6l0,0c-2.4,0-4.8,0-4.8-2.7l0,0v-9.1
				h4.8c2.7,0,2.9,1.6,3.1,3.8l0,0l0.8-0.2c-0.1-1.4-0.1-2.8-0.1-4.2l0,0c0-1.4,0-2.9,0.1-4.3l0,0h-0.8c-0.2,2-0.8,3.4-3.2,3.4l0,0
				h-4.7V93.7h5.5c4,0,4.6,2,4.8,4.4l0,0l0.8-0.2c-0.1-1.1-0.1-2.5-0.1-3.7l0,0c0-0.7,0-1.3,0-1.8l0,0c-2.6,0-6.5,0.2-9.6,0.2l0,0
				c-3.1,0-7-0.1-9.4-0.2l0,0v0.8h0.4c1.4,0,3,0.2,3,2.3l0,0v20c0,2.1-1.6,2.3-3,2.4l0,0h-0.4v0.8c2.2,0,6.7-0.2,10-0.2l0,0
				C259.8,118.6,264.1,118.7,266.6,118.7L266.6,118.7z"/>
		</g>
		<g>
			<path d="M273.2,96.3c0-2.8-1.5-2.9-2.7-2.9h-0.7v-1.2c1.2,0,3.6,0.2,5.9,0.2c2.3,0,4.1-0.2,6.2-0.2c4.8,0,9.1,1.3,9.1,6.7
				c0,3.4-2.3,5.5-5.3,6.7l6.5,9.8c1.1,1.6,1.8,2.1,3.7,2.3v1.2c-1.3,0-2.5-0.1-3.7-0.1c-1.2,0-2.4,0.1-3.6,0.1
				c-2.9-3.9-5.5-8-8-12.4h-2.5v8.2c0,3,1.4,3.1,3.1,3.1h0.7v1.2c-2.2,0-4.4-0.1-6.6-0.1c-1.8,0-3.6,0.1-5.6,0.1v-1.2h0.7
				c1.4,0,2.7-0.6,2.7-2.1V96.3z M278.1,105.1h1.9c3.8,0,5.9-1.4,5.9-6c0-3.4-2.2-5.6-5.6-5.6c-1.2,0-1.6,0.1-2.2,0.2V105.1z"/>
			<path d="M295.9,119.1c-1.3,0-2.5-0.1-3.8-0.1l0,0c-1.2,0-2.4,0.1-3.7,0.1l0,0c-2.9-3.9-5.4-8-7.9-12.3l0,0h-2.3v8
				c0,2.9,1.2,2.9,3,2.9l0,0h0.9v0.2v1.3h-0.2c-2.2,0-4.4-0.1-6.6-0.1l0,0c-1.8,0-3.6,0.1-5.5,0.1l0,0h-0.2v-0.2v-1.3h0.2h0.7
				c1.4,0,2.5-0.6,2.5-1.9l0,0V96.3c0-2.7-1.4-2.7-2.5-2.7l0,0h-0.9v-0.2V92h0.2c1.2,0,3.6,0.1,5.9,0.1l0,0c2.3,0,4.1-0.1,6.2-0.1
				l0,0c4.8,0,9.3,1.3,9.3,6.9l0,0c0,3.5-2.3,5.6-5.2,6.8l0,0l6.4,9.6c1.1,1.6,1.7,2,3.6,2.2l0,0l0.1,0v0.1v1.3H295.9L295.9,119.1z
				 M278.1,106.3h2.6l0,0.1c2.5,4.4,5,8.5,7.8,12.3l0,0c1.2,0,2.4-0.2,3.6-0.2l0,0c1.2,0,2.4,0.1,3.6,0.2l0,0v-0.8
				c-1.8-0.2-2.6-0.8-3.7-2.3l0,0l-6.7-10l0.2-0.1c3-1.2,5.2-3.2,5.2-6.6l0,0c0-5.3-4.1-6.5-8.9-6.6l0,0c-2,0-3.9,0.2-6.2,0.2l0,0
				c-2.3,0-4.5-0.1-5.8-0.2l0,0v0.8h0.5c1.2,0,2.9,0.2,2.9,3.1l0,0v19.4c0,1.5-1.4,2.2-2.9,2.2l0,0h-0.5v0.8c1.8,0,3.6-0.2,5.4-0.2
				l0,0c2.1,0,4.3,0.1,6.4,0.2l0,0v-0.8h-0.5c-1.7,0-3.3-0.2-3.3-3.2l0,0v-8.4H278.1L278.1,106.3z M278.1,105.3h-0.2V93.6l0.1,0
				c0.5,0,1-0.1,2.2-0.1l0,0c3.5,0,5.8,2.3,5.8,5.8l0,0c0,4.6-2.2,6.1-6.1,6.1l0,0H278.1L278.1,105.3z M279.9,105
				c3.8,0,5.7-1.3,5.7-5.8l0,0c0-3.3-2.1-5.4-5.4-5.4l0,0c-1,0-1.5,0.1-2,0.1l0,0V105H279.9L279.9,105z"/>
		</g>
		<g>
			<path d="M321.9,111.4L321.9,111.4l0.1-14.4c0-3.1-2.2-3.6-3.3-3.6h-0.8v-1.2c1.8,0,3.6,0.2,5.4,0.2c1.6,0,3.1-0.2,4.7-0.2v1.2
				h-0.6c-1.6,0-3.4,0.3-3.4,4.9v17.4c0,1.3,0,2.7,0.2,3.9h-1.4l-19.7-22v15.8c0,3.3,0.7,4.5,3.6,4.5h0.7v1.2
				c-1.6,0-3.3-0.1-4.9-0.1c-1.7,0-3.5,0.1-5.2,0.1v-1.2h0.5c2.6,0,3.4-1.8,3.4-4.9V96.8c0-2.1-1.8-3.4-3.5-3.4H297v-1.2
				c1.4,0,3,0.2,4.4,0.2c1.1,0,2.3-0.2,3.4-0.2L321.9,111.4z"/>
			<path d="M324.1,119.7l-1.6-0.1L303.1,98v15.3c0,3.3,0.6,4.3,3.4,4.3l0,0h0.8v0.2v1.3h-0.2c-1.7,0-3.3-0.2-4.9-0.2l0,0
				c-1.7,0-3.5,0.2-5.2,0.2l0,0h-0.2v-0.2v-1.3h0.2h0.5c2.5,0,3.3-1.6,3.3-4.7l0,0V96.8c0-2-1.7-3.3-3.3-3.3l0,0h-0.7v-0.2V92h0.2
				c1.5,0,3,0.1,4.4,0.1l0,0c1.1,0,2.2-0.1,3.5-0.1l0,0l16.8,18.9V97c0-3-2-3.4-3.2-3.4l0,0h-1v-0.2V92h0.2c1.8,0,3.6,0.1,5.4,0.1
				l0,0c1.6,0,3.1-0.1,4.7-0.1l0,0h0.2v0.2v1.3h-0.2h-0.6c-1.6,0-3.2,0.2-3.2,4.7l0,0v17.4c0,1.3,0,2.7,0.2,3.8l0,0l0,0.2H324.1
				L324.1,119.7z M322.6,119.3h1.3c-0.2-1.1-0.2-2.4-0.2-3.7l0,0V98.2c0-4.6,1.9-5,3.6-5l0,0h0.4v-0.8c-1.5,0-3,0.2-4.5,0.2l0,0
				c-1.8,0-3.5-0.1-5.2-0.2l0,0v0.8h0.7c1.2,0,3.5,0.5,3.5,3.8l0,0l-0.1,14.5l-0.1,0.1l-0.1,0.1l-17-19.2c-1.1,0-2.3,0.2-3.4,0.2
				l0,0c-1.4,0-2.8-0.1-4.2-0.2l0,0v0.8h0.3c1.8,0,3.6,1.4,3.6,3.6l0,0v16.1c0,3.1-0.9,5-3.6,5l0,0h-0.4v0.8c1.7,0,3.4-0.2,5-0.2
				l0,0c1.6,0,3.2,0.1,4.8,0.2l0,0v-0.8h-0.5c-3,0-3.8-1.3-3.8-4.6l0,0V97.1L322.6,119.3L322.6,119.3z M321.9,111.4l0.1-0.1
				L321.9,111.4L321.9,111.4z M321.8,111.3L321.8,111.3L321.8,111.3L321.8,111.3L321.8,111.3z"/>
		</g>
		<g>
			<path d="M334,113.4c-0.4,1.3-0.9,2.3-0.9,3c0,1.2,1.6,1.3,2.9,1.3h0.4v1.2c-1.5-0.1-3.1-0.1-4.6-0.1c-1.4,0-2.8,0.1-4.1,0.1v-1.2
				h0.2c1.5,0,2.8-0.9,3.3-2.5l6.1-17.6c0.5-1.4,1.2-3.3,1.4-4.8c1.2-0.4,2.8-1.2,3.5-1.6c0.1,0,0.2-0.1,0.3-0.1
				c0.1,0,0.2,0,0.3,0.1c0.1,0.3,0.2,0.7,0.3,1l7,20c0.5,1.3,0.9,2.8,1.4,3.9c0.5,1.1,1.3,1.5,2.5,1.5h0.2v1.2
				c-1.7-0.1-3.4-0.1-5.3-0.1c-1.9,0-3.8,0.1-5.7,0.1v-1.2h0.4c0.9,0,2.4-0.1,2.4-1.1c0-0.5-0.3-1.5-0.8-2.8l-1.5-4.4h-8.7
				L334,113.4z M339.6,96.5L339.6,96.5l-3.6,10.8h7.2L339.6,96.5z"/>
			<path d="M354.4,119.1c-1.7-0.1-3.4-0.2-5.3-0.2l0,0c-1.9,0-3.8,0.1-5.7,0.2l0,0l-0.2,0v-0.2v-1.3h0.2h0.4c0.9,0,2.2-0.2,2.2-0.9
				l0,0c0-0.4-0.3-1.5-0.7-2.7l0,0l-1.5-4.3h-8.4l-1.2,3.9c-0.4,1.3-0.8,2.3-0.8,2.9l0,0c0,0.9,1.4,1.2,2.7,1.2l0,0h0.6v0.2v1.3
				l-0.2,0c-1.5-0.1-3.1-0.2-4.6-0.2l0,0c-1.4,0-2.8,0.1-4.1,0.2l0,0l-0.2,0v-0.2v-1.3h0.2h0.2c1.4,0,2.6-0.8,3.2-2.4l0,0l6.1-17.6
				c0.5-1.4,1.2-3.3,1.5-4.8l0,0c1.2-0.4,2.7-1.2,3.5-1.6l0,0c0.1,0,0.2-0.1,0.4-0.1l0,0c0.1,0,0.3,0,0.4,0.2l0,0
				c0.1,0.3,0.2,0.7,0.3,1l0,0l7.1,20c0.5,1.3,0.9,2.8,1.4,3.9l0,0c0.4,1,1.1,1.4,2.4,1.4l0,0h0.4v0.2v1.3L354.4,119.1L354.4,119.1z
				 M343.5,118.7c1.9-0.1,3.7-0.1,5.6-0.1l0,0c1.8,0,3.4,0.1,5.1,0.1l0,0v-0.8h-0.1c-1.3,0-2.2-0.5-2.7-1.6l0,0
				c-0.5-1.2-1-2.6-1.4-3.9l0,0l-7-20c-0.1-0.3-0.2-0.7-0.3-0.9l0,0c0,0,0,0-0.1,0l0,0c0,0,0,0-0.1,0l0,0c-0.1,0-0.1,0-0.2,0.1l0,0
				c-0.7,0.5-2.3,1.2-3.4,1.5l0,0c-0.2,1.5-0.9,3.4-1.4,4.8l0,0l-6.1,17.6c-0.6,1.7-1.9,2.6-3.5,2.6l0,0h-0.1v0.8
				c1.3-0.1,2.6-0.1,4-0.1l0,0c1.5,0,3,0.1,4.5,0.1l0,0v-0.8H336c-1.3,0-3-0.1-3-1.5l0,0c0-0.8,0.5-1.7,0.8-3l0,0l0.2,0l-0.2-0.1
				l1.3-4.1h8.9l1.5,4.5c0.4,1.2,0.8,2.2,0.8,2.8l0,0c-0.1,1.2-1.7,1.3-2.5,1.3l0,0h-0.3V118.7L343.5,118.7z M335.7,107.5l3.7-11.2
				h0.1h0.1v0.2l0,0l0,0v-0.2h0.1l3.6,11.2H335.7L335.7,107.5z M336.2,107.2h6.7l-3.3-10.3L336.2,107.2L336.2,107.2z M339.4,96.5
				L339.4,96.5L339.4,96.5L339.4,96.5z"/>
		</g>
		<g>
			<path d="M356.1,94.1c-2.9,0-3,0.7-3.6,3.5h-1.2c0.2-1.1,0.4-2.1,0.5-3.3c0.2-1.1,0.2-2.1,0.2-3.2h0.9c0.3,1.1,1.3,1.1,2.3,1.1
				H375c1,0,2,0,2.1-1.2l0.9,0.2c-0.1,1-0.3,2.1-0.4,3.1c-0.1,1-0.1,2.1-0.1,3.1l-1.1,0.4c-0.1-1.4-0.3-3.7-2.8-3.7h-6.3v20.4
				c0,3,1.3,3.3,3.2,3.3h0.7v1.2c-1.5,0-4.2-0.1-6.2-0.1c-2.3,0-5,0.1-6.5,0.1v-1.2h0.7c2.1,0,3.2-0.2,3.2-3.2V94.1H356.1z"/>
			<path d="M371.1,119.1c-1.5,0-4.2-0.1-6.2-0.1l0,0c-2.3,0-5,0.1-6.5,0.1l0,0h-0.2v-0.2v-1.3h0.2h0.7c2.1-0.1,3-0.1,3-3l0,0V94.3
				h-6.1v-0.2V94h6.4v20.6c0,3.1-1.2,3.4-3.3,3.4l0,0h-0.6v0.8c1.5,0,4.1-0.2,6.3-0.2l0,0c2,0,4.6,0.1,6.1,0.2l0,0l0-0.8h-0.6
				c-1.8,0-3.3-0.5-3.3-3.5l0,0V94h6.4c2.6,0,2.9,2.2,3,3.6l0,0l0.8-0.3c0-1,0-2,0.1-3l0,0c0.1-1,0.3-2,0.4-2.9l0,0l-0.6-0.1
				c-0.2,1.1-1.3,1.2-2.2,1.2l0,0h-19.7c-0.1,0-0.1,0-0.2,0l0,0c-0.9,0-1.9,0-2.2-1.1l0,0h-0.6c0,1.1-0.1,2.1-0.2,3.1l0,0
				c-0.1,1.1-0.3,2.1-0.4,3.1l0,0h0.8c0.5-2.7,0.8-3.5,3.7-3.5l0,0v0.2v0.2c-2.8,0.1-2.8,0.5-3.4,3.4l0,0l0,0.1h-0.1h-1.3l0-0.2
				c0.2-1.1,0.3-2.1,0.5-3.2l0,0c0.2-1.1,0.2-2.1,0.2-3.2l0,0v-0.2h0.2h1l0,0.1c0.3,1,1,1,1.9,1l0,0c0.1,0,0.1,0,0.2,0l0,0H375
				c1.1,0,1.8,0,1.9-1l0,0l0-0.2l0.2,0l1.1,0.2l0,0.2c-0.2,1-0.3,2.1-0.4,3.1l0,0c-0.1,1-0.1,2.1-0.1,3.1l0,0v0.1l-0.1,0l-1.4,0.5
				v-0.2c-0.1-1.4-0.3-3.5-2.7-3.5l0,0h-6.1v20.2c0,2.9,1.2,3.1,3,3.1l0,0h0.9v0.2v1.3H371.1L371.1,119.1z"/>
		</g>
		<g>
			<path d="M379.4,117.8h0.5c1.4,0,2.8-0.2,2.8-2.2v-20c0-2-1.4-2.2-2.8-2.2h-0.5v-1.2c1.5,0,3.8,0.2,5.7,0.2c1.9,0,4.2-0.2,6-0.2
				v1.2h-0.5c-1.4,0-2.8,0.2-2.8,2.2v20c0,2,1.5,2.2,2.8,2.2h0.5v1.2c-1.8,0-4.1-0.1-6-0.1c-1.9,0-4.1,0.1-5.6,0.1V117.8z"/>
			<path d="M391.1,119.1c-1.8,0-4.1-0.2-6-0.2l0,0c-1.9,0-4.1,0.2-5.6,0.2l0,0h-0.2v-0.2v-1.2v-0.2h0.2h0.5c1.4,0,2.7-0.2,2.7-2l0,0
				v-20c0-1.9-1.3-2-2.7-2l0,0h-0.7v-0.2V92h0.2c1.5,0,3.8,0.1,5.7,0.1l0,0c1.9,0,4.2-0.1,6-0.1l0,0h0.2v0.2v1.3h-0.2h-0.5
				c-1.4,0-2.7,0.2-2.7,2l0,0v20c0,1.9,1.3,2,2.7,2l0,0h0.7v0.2v1.3H391.1L391.1,119.1z M390.9,118.7v-0.8h-0.4c-1.4,0-3-0.2-3-2.4
				l0,0v-20c0-2.1,1.6-2.3,3-2.3l0,0h0.4v-0.8c-1.8,0-4,0.2-5.8,0.2l0,0c-1.8,0-4-0.1-5.5-0.2l0,0v0.8h0.4c1.4,0,3,0.2,3,2.3l0,0v20
				c0,2.1-1.6,2.4-3,2.4l0,0h-0.4v0.8c1.5,0,3.6-0.2,5.5-0.2l0,0C386.9,118.6,389.1,118.7,390.9,118.7L390.9,118.7z"/>
		</g>
		<g>
			<path d="M406.3,91.6c8.2,0,14.7,5.1,14.7,13.2c0,8.8-6.3,14.7-14.5,14.7c-8.1,0-14.3-5.5-14.3-13.7
				C392.2,97.8,398.4,91.6,406.3,91.6z M406.9,117.8c7.4,0,8.7-6.5,8.7-12.1c0-5.6-3-12.4-9.4-12.4c-6.7,0-8.7,6-8.7,11.1
				C397.6,111.3,400.7,117.8,406.9,117.8z"/>
			<path d="M392,105.7c0-8,6.2-14.3,14.3-14.3l0,0v0.2v0.2c-7.9,0-14,6.1-14,13.9l0,0c0,8.1,6.1,13.6,14.2,13.6l0,0
				c8.1,0,14.3-5.8,14.3-14.5l0,0c0-8-6.4-13-14.5-13l0,0v-0.2v-0.2c8.2,0,14.8,5.1,14.8,13.4l0,0c0,8.9-6.4,14.8-14.6,14.8l0,0
				C398.3,119.6,392.1,114.1,392,105.7L392,105.7z M397.4,104.4c0-5.1,2-11.3,8.9-11.3l0,0c6.5,0,9.5,6.9,9.5,12.5l0,0
				c0,5.6-1.3,12.3-8.9,12.3l0,0v-0.2v-0.2c7.3,0,8.5-6.4,8.6-12l0,0c0-5.5-3-12.2-9.2-12.2l0,0c-6.6,0-8.5,5.8-8.5,10.9l0,0
				c0,6.8,3.1,13.2,9.2,13.2l0,0v0.2v0.2C400.5,118,397.4,111.3,397.4,104.4L397.4,104.4z"/>
		</g>
		<g>
			<path d="M446.8,111.4L446.8,111.4l0.1-14.4c0-3.1-2.2-3.6-3.3-3.6h-0.8v-1.2c1.8,0,3.6,0.2,5.3,0.2c1.6,0,3.1-0.2,4.7-0.2v1.2
				h-0.6c-1.6,0-3.4,0.3-3.4,4.9v17.4c0,1.3,0,2.7,0.2,3.9h-1.5l-19.7-22v15.8c0,3.3,0.6,4.5,3.6,4.5h0.6v1.2
				c-1.6,0-3.3-0.1-4.9-0.1c-1.7,0-3.5,0.1-5.2,0.1v-1.2h0.5c2.6,0,3.4-1.8,3.4-4.9V96.8c0-2.1-1.8-3.4-3.5-3.4h-0.5v-1.2
				c1.5,0,2.9,0.2,4.4,0.2c1.1,0,2.3-0.2,3.4-0.2L446.8,111.4z"/>
			<path d="M449,119.7l-1.6-0.1L428,98v15.3c0,3.3,0.6,4.3,3.4,4.3l0,0h0.8v0.2v1.3h-0.2c-1.7,0-3.3-0.1-4.9-0.1l0,0
				c-1.7,0-3.5,0.1-5.2,0.1l0,0h-0.2v-0.2v-1.3h0.2h0.5c2.5,0,3.3-1.6,3.3-4.7l0,0V96.8c0-2-1.7-3.3-3.3-3.3l0,0h-0.7v-0.2V92h0.2
				c1.5,0,3,0.1,4.4,0.1l0,0c1.1,0,2.2-0.1,3.5-0.1l0,0l16.8,18.9V97c0-3-2-3.4-3.2-3.4l0,0h-1v-0.2V92h0.2c1.8,0,3.6,0.1,5.3,0.1
				l0,0c1.6,0,3.1-0.1,4.7-0.1l0,0h0.2v0.2v1.3h-0.2h-0.6c-1.6,0-3.2,0.2-3.2,4.7l0,0v17.4c0,1.3,0,2.7,0.2,3.8l0,0l0,0.2H449
				L449,119.7z M447.5,119.3h1.3c-0.2-1.1-0.2-2.4-0.2-3.7l0,0V98.2c0-4.6,1.9-5,3.6-5l0,0h0.4v-0.8c-1.5,0-3,0.2-4.6,0.2l0,0
				c-1.7,0-3.4-0.1-5.2-0.2l0,0v0.8h0.7c1.2,0,3.5,0.5,3.5,3.8l0,0l0,14.5l-0.1,0.1l-0.1,0.1l-17-19.2c-1.1,0-2.2,0.2-3.4,0.2l0,0
				c-1.4,0-2.9-0.1-4.2-0.2l0,0v0.8h0.3c1.8,0,3.7,1.4,3.7,3.6l0,0v16.1c0,3.1-0.9,5-3.6,5l0,0h-0.4v0.8c1.7,0,3.4-0.2,5-0.2l0,0
				c1.6,0,3.2,0.1,4.8,0.2l0,0v-0.8h-0.5c-3,0-3.8-1.3-3.8-4.6l0,0V97.1L447.5,119.3L447.5,119.3z M446.8,111.4l0.1-0.1L446.8,111.4
				L446.8,111.4z M446.7,111.3L446.7,111.3L446.7,111.3L446.7,111.3L446.7,111.3z"/>
		</g>
		<g>
			<path d="M458.9,113.4c-0.4,1.3-0.8,2.3-0.8,3c0,1.2,1.6,1.3,2.9,1.3h0.4v1.2c-1.5-0.1-3.1-0.1-4.6-0.1c-1.4,0-2.8,0.1-4.1,0.1
				v-1.2h0.2c1.5,0,2.8-0.9,3.3-2.5l6.1-17.6c0.5-1.4,1.2-3.3,1.4-4.8c1.2-0.4,2.8-1.2,3.5-1.6c0.1,0,0.2-0.1,0.3-0.1
				c0.1,0,0.2,0,0.3,0.1c0.1,0.3,0.2,0.7,0.4,1l7,20c0.4,1.3,0.9,2.8,1.4,3.9c0.5,1.1,1.3,1.5,2.5,1.5h0.2v1.2
				c-1.7-0.1-3.4-0.1-5.3-0.1c-1.9,0-3.8,0.1-5.7,0.1v-1.2h0.4c0.9,0,2.4-0.1,2.4-1.1c0-0.5-0.3-1.5-0.8-2.8l-1.5-4.4h-8.7
				L458.9,113.4z M464.5,96.5L464.5,96.5l-3.6,10.8h7.2L464.5,96.5z"/>
			<path d="M479.3,119.1c-1.7-0.1-3.4-0.1-5.3-0.1l0,0c-1.9,0-3.8,0.1-5.7,0.1l0,0l-0.2,0v-0.2v-1.3h0.2h0.4c0.9,0,2.2-0.2,2.2-0.9
				l0,0c0-0.4-0.3-1.5-0.8-2.7l0,0l-1.5-4.3h-8.4l-1.2,3.9l0,0c-0.4,1.3-0.8,2.3-0.8,2.9l0,0c0,0.9,1.4,1.2,2.7,1.2l0,0h0.6v0.2v1.3
				l-0.2,0c-1.5-0.1-3.1-0.1-4.6-0.1l0,0c-1.4,0-2.7,0.1-4.1,0.1l0,0l-0.2,0v-0.2v-1.3h0.2h0.2c1.4,0,2.6-0.8,3.2-2.4l0,0l6.1-17.6
				c0.5-1.4,1.2-3.3,1.5-4.8l0,0c1.2-0.4,2.7-1.2,3.5-1.6l0,0c0.1,0,0.2-0.1,0.4-0.1l0,0c0.1,0,0.3,0,0.4,0.2l0,0
				c0.1,0.3,0.2,0.6,0.3,1l0,0l7,20c0.5,1.3,0.9,2.8,1.4,3.9l0,0c0.5,1,1.1,1.4,2.4,1.4l0,0h0.4v0.2v1.3L479.3,119.1L479.3,119.1z
				 M468.4,118.7c1.9-0.1,3.8-0.1,5.6-0.1l0,0c1.8,0,3.4,0.1,5.1,0.1l0,0v-0.8H479c-1.3,0-2.2-0.5-2.7-1.6l0,0
				c-0.5-1.2-1-2.6-1.4-3.9l0,0l-7-20c-0.1-0.3-0.2-0.7-0.3-0.9l0,0c0-0.1,0-0.1-0.1-0.1l0,0c0,0,0,0-0.1,0l0,0
				c-0.1,0-0.1,0-0.2,0.1l0,0c-0.7,0.5-2.3,1.2-3.4,1.5l0,0c-0.2,1.5-0.9,3.4-1.4,4.8l0,0l-6.1,17.6c-0.6,1.7-1.9,2.6-3.5,2.6l0,0
				h-0.1v0.8c1.3-0.1,2.6-0.1,4-0.1l0,0c1.5,0,3,0.1,4.5,0.1l0,0v-0.8h-0.3c-1.2,0-3-0.1-3-1.5l0,0c0-0.8,0.5-1.7,0.9-3l0,0l0.1,0
				l-0.1-0.1l1.3-4.1h8.9l1.5,4.5c0.4,1.2,0.8,2.2,0.8,2.8l0,0c-0.1,1.2-1.7,1.3-2.5,1.3l0,0h-0.2V118.7L468.4,118.7z M460.6,107.5
				l3.7-11.1h0.1h0.1v0.2l0,0l0,0v-0.2h0.1l3.6,11.1H460.6L460.6,107.5z M461.1,107.2h6.7l-3.3-10.2L461.1,107.2L461.1,107.2z
				 M464.3,96.5L464.3,96.5L464.3,96.5L464.3,96.5z"/>
		</g>
		<g>
			<path d="M488.9,115.2c0,1.5,1.1,2,2.3,2.1c1.6,0.1,3.3,0.1,5.1-0.1c1.6-0.2,3-1.1,3.7-2.1c0.6-0.8,0.9-1.9,1.2-2.8h1.1
				c-0.4,2.2-1,4.3-1.4,6.5c-3.4,0-6.7-0.1-10.1-0.1c-3.4,0-6.7,0.1-10.1,0.1v-1.2h0.5c1.4,0,2.9-0.2,2.9-2.6V95.5
				c0-2-1.5-2.2-2.9-2.2h-0.5v-1.2c2,0,4,0.2,6,0.2c2,0,3.9-0.2,5.8-0.2v1.2h-1c-1.4,0-2.6,0-2.6,2.1V115.2z"/>
			<path d="M500.8,119.1c-3.4,0-6.7-0.1-10.1-0.1l0,0c-3.4,0-6.7,0.1-10.1,0.1l0,0h-0.2v-0.2v-1.3h0.2h0.5c1.4,0,2.7-0.1,2.7-2.4
				l0,0V95.5c0-1.9-1.3-2-2.7-2l0,0h-0.7v-0.2V92h0.2c2,0,4,0.1,6.1,0.1l0,0c1.9,0,3.9-0.1,5.8-0.1l0,0h0.1v0.2v1.3h-0.1h-1
				c-1.5,0-2.4,0-2.4,1.9l0,0v19.7c0,1.4,0.9,1.8,2.2,2l0,0c0.7,0,1.4,0.1,2.1,0.1l0,0c0.9,0,1.9,0,2.9-0.1l0,0
				c1.6-0.2,2.9-1.1,3.6-2l0,0c0.6-0.8,0.9-1.9,1.2-2.7l0,0l0-0.1h0.1h1.3l0,0.2c-0.4,2.2-1,4.3-1.4,6.5l0,0l0,0.1H500.8
				L500.8,119.1z M500.7,118.7c0.4-2.1,0.9-4.1,1.3-6.2l0,0h-0.8c-0.2,0.8-0.6,1.9-1.2,2.7l0,0c-0.7,1-2.1,1.9-3.8,2.1l0,0
				c-1,0.1-2,0.2-2.9,0.2l0,0c-0.7,0-1.5,0-2.2-0.1l0,0c-1.2-0.1-2.4-0.7-2.4-2.3l0,0V95.4c0-2.1,1.3-2.2,2.8-2.2l0,0h0.8v-0.8
				c-1.9,0-3.8,0.2-5.7,0.2l0,0c-2,0-3.9-0.1-5.9-0.2l0,0v0.8h0.4c1.4,0,3,0.2,3,2.3l0,0v19.7c0,2.5-1.7,2.7-3,2.7l0,0h-0.4v0.8
				c3.3,0,6.6-0.2,9.9-0.2l0,0C494,118.6,497.4,118.7,500.7,118.7L500.7,118.7z"/>
		</g>
		<path d="M501.8,91.1c2.3,0,4,1.8,4,4c0,2.3-1.7,4-4,4c-2.3,0-4-1.8-4-4C497.7,92.9,499.5,91.1,501.8,91.1z M501.8,98.4
			c1.8,0,3.2-1.5,3.2-3.3c0-1.7-1.4-3.3-3.2-3.3c-1.8,0-3.2,1.6-3.2,3.3C498.6,96.9,499.9,98.4,501.8,98.4z M499.8,97.3v-0.2
			c0.5-0.1,0.6,0,0.6-0.4v-3c0-0.4,0-0.6-0.6-0.5V93h2.1c0.7,0,1.4,0.3,1.4,1.1c0,0.6-0.4,1-1,1.2l0.7,0.9c0.3,0.4,0.7,0.8,0.9,0.9
			v0.1H503c-0.4,0-0.7-0.8-1.4-1.9h-0.4v1.3c0,0.3,0.1,0.3,0.6,0.3v0.2H499.8z M501.1,95.2h0.5c0.5,0,0.8-0.4,0.8-1
			c0-0.6-0.4-0.9-0.8-0.9h-0.4V95.2z"/>
	</g>
	<path fill="#0069AA" d="M71.3,140.5c-37,0.2-67.4-29.8-67.4-66.3c0-39.9,30.4-67.4,67.4-67.4h17.3c36.5,0,69.9,27.6,69.9,67.4
		c0,36.5-33.4,66.3-69.9,66.3H71.3z M71.4,12.4c-33.8,0-61.2,27.4-61.2,61.2c0,33.8,27.4,61.2,61.2,61.2c33.8,0,61.2-27.4,61.2-61.2
		C132.6,39.8,105.2,12.4,71.4,12.4z M57.6,109.8V37.4C43,43,32.7,57,32.7,73.6C32.7,90.1,43,104.2,57.6,109.8z M110.2,73.6
		c0-16.5-10.4-30.6-24.9-36.2v72.4C99.9,104.2,110.2,90.1,110.2,73.6z"/>
</g>
</svg>
